<svg xmlns="http://www.w3.org/2000/svg" viewBox="0 0 698.96 712.93"><defs><style>.cls-1{fill:#01b5de;}.cls-2{fill:#fff;}.cls-3{fill:#f2662e;}</style></defs><g id="Layer_2" data-name="Layer 2"><g id="Layer_1-2" data-name="Layer 1"><path class="cls-1" d="M682.23,247.49,469.68,46.29c-.84-.8-1.7-1.56-2.58-2.29L461,63.61,369.46,358.08l66.08-10.73-161,327.2-9.75,23.3,12.05,11.41a13.4,13.4,0,0,0,13,3.11l302.77-90a53.57,53.57,0,0,0,36.82-38.88l68-284.64A53.55,53.55,0,0,0,682.23,247.49Z"/><path class="cls-2" d="M115.13,101.55,421.29,9a13.51,13.51,0,0,1,13.17,3.08L665.13,230.18c14.07,13.2,6.47,29.76,2.07,48.55L615.74,571.22a54,54,0,0,1-37,39.38L295,696.38c-18.47,5.59-32.05,2.31-46.58-8.06l-16.6-14.11L44.2,485.81c-14.07-13.21-23.91-35.16-19.51-53.95L78.16,140.93A54,54,0,0,1,115.13,101.55Z"/><path class="cls-3" d="M346,370.77,406.76,360,257.13,668.06l-8.53,20.4a54,54,0,0,0,48.83,9.35l283-84.16a54,54,0,0,0,37.14-39.22l68.59-287.1a54,54,0,0,0-15.4-51.77L452.25,28.75l-7.17,23.08Z"/><path class="cls-1" d="M16.93,470.71l215,203.48q1.27,1.2,2.61,2.31l6.17-19.83,92.57-297.8L266.4,369.72,429.2,38.81l9.86-23.56L426.87,3.71A13.57,13.57,0,0,0,413.68.56L107.49,91.63A54.14,54.14,0,0,0,70.25,131L1.48,418.81A54.13,54.13,0,0,0,16.93,470.71Z"/></g></g></svg>