<svg xmlns="http://www.w3.org/2000/svg" viewBox="0 0 1149.09 848.49"><defs><style>.cls-1{fill:#f2672f;}.cls-2{fill:#00b5dd;}.cls-3{fill:#07b5df;}.cls-4{fill:#01b5de;}.cls-5{fill:#f2662e;}.cls-6{fill:#fff;}</style></defs><g id="Layer_2" data-name="Layer 2"><g id="Layer_1-2" data-name="Layer 1"><path class="cls-1" d="M10.92,846.49V457.87H224.54q59.13,0,89.91,27.76t30.78,79.65q0,30.18-11.17,50.69a90,90,0,0,1-29.26,32.59q24.74,9.66,39.52,28.06t14.79,54.61q0,54.91-33.8,85.09t-95.94,30.17ZM120.14,613h73.62q41.64,0,41.64-37.42,0-18.69-10-28.36t-34.69-9.66H120.14Zm0,154.48h78.45q22.93,0,33.79-9.66t10.87-32q0-18.7-10.87-28.36t-36.2-9.66h-76Z"/><path class="cls-2" d="M724.87,848.49,868.49,651.77,730.3,459.87H855.47l71.21,102,81.81-102h135.17l-138.19,191.9,143.62,196.72h-137l-75.43-105.6-74.83,105.6Z"/><path class="cls-1" d="M102.3,406.52A337.3,337.3,0,0,1,54,403.2a241.81,241.81,0,0,1-44-10.56V298.51a147.72,147.72,0,0,0,32.58,9.05,219,219,0,0,0,36.21,3q32.58,0,46.46-13.28t13.88-44.05V11.87H252.56V271.35q0,63.36-38.32,99.27T102.3,406.52Z"/><path class="cls-1" d="M270.67,400.49,419.72,11.87H539.8L688.85,400.49H570.58L538,317.82H420.92l-32,82.67ZM436,236.35h86.9l-43.45-114Z"/><path class="cls-1" d="M731.09,400.49V11.87H831.52L928.07,209.2,1034,11.87h109.83V400.49H1030.4V206.18L968.24,334.11H907.3L844.54,206.18V400.49Z"/><path class="cls-3" d="M92.33,394.65a337.34,337.34,0,0,1-48.28-3.32A242.21,242.21,0,0,1,0,380.77V286.64a147.82,147.82,0,0,0,32.59,9.05,218.79,218.79,0,0,0,36.2,3q32.59,0,46.47-13.28t13.88-44.05V0H242.58V259.48q0,63.36-38.31,99.27T92.33,394.65Z"/><path class="cls-3" d="M260.69,388.62,409.74,0H529.83l149,388.62H560.6L528,306H411l-32,82.67ZM426,224.48h86.9l-43.45-114Z"/><path class="cls-3" d="M721.12,388.62V0H831.54L928.1,197.33,1024,0h109.83V388.62H1020.42V194.31L958.27,322.24H897.32L834.56,194.31V388.62Z"/><path class="cls-4" d="M1,836.25V447.63H214.58q59.13,0,89.91,27.76t30.78,79.66q0,30.18-11.17,50.69a90.05,90.05,0,0,1-29.27,32.58q24.75,9.66,39.53,28.06T349.15,721q0,54.93-33.8,85.09t-96,30.17ZM110.18,602.72H183.8q41.64,0,41.64-37.41,0-18.7-10-28.37t-34.7-9.65h-70.6Zm0,154.48h78.45q22.92,0,33.79-9.65t10.86-32q0-18.69-10.86-28.36t-36.21-9.65h-76Z"/><path class="cls-5" d="M714.63,837.25,858.25,640.53,720.06,448.63H855.23l71.21,102,71.81-102h135.17L995.23,640.53l143.62,196.72h-137l-75.43-105.6-74.83,105.6Z"/><path class="cls-4" d="M754,587.8,635,475.19c-.47-.44-1-.87-1.45-1.28l-3.41,11-51.23,164.8,37-6L525.8,826.81l-5.46,13,6.75,6.38a7.51,7.51,0,0,0,7.3,1.75l169.44-50.4a30,30,0,0,0,20.61-21.76l38.06-159.3A30,30,0,0,0,754,587.8Z"/><path class="cls-6" d="M436.57,506.12l171.34-51.79a7.6,7.6,0,0,1,7.38,1.73L744.38,578.11c7.88,7.39,3.63,16.66,1.16,27.17L716.74,769a30.24,30.24,0,0,1-20.69,22L537.23,839c-10.34,3.12-17.94,1.29-26.07-4.52l-9.29-7.89-105-105.44C389,713.79,383.49,701.5,386,691l29.92-162.82A30.24,30.24,0,0,1,436.57,506.12Z"/><path class="cls-5" d="M565.76,656.8l34-6L516,823.18l-4.77,11.41a30.23,30.23,0,0,0,27.32,5.24L697,792.72a30.22,30.22,0,0,0,20.78-22l38.39-160.68a30.23,30.23,0,0,0-8.62-29L625.25,465.38l-4,12.91Z"/><path class="cls-4" d="M381.61,712.73l120.3,113.88c.47.45,1,.88,1.46,1.29l3.45-11.1,51.81-166.66-37.4,6.07L612.34,471l5.52-13.19L611,451.37a7.58,7.58,0,0,0-7.38-1.77l-171.37,51a30.33,30.33,0,0,0-20.84,22L373,683.68A30.31,30.31,0,0,0,381.61,712.73Z"/></g></g></svg>